<?xml version="1.0" encoding="UTF-8" standalone="no"?>
<!DOCTYPE svg PUBLIC "-//W3C//DTD SVG 1.1//EN" "http://www.w3.org/Graphics/SVG/1.1/DTD/svg11.dtd">
<svg width="100%" height="100%" viewBox="0 0 64 64" version="1.1" xmlns="http://www.w3.org/2000/svg" xmlns:xlink="http://www.w3.org/1999/xlink" xml:space="preserve" xmlns:serif="http://www.serif.com/" style="fill-rule:evenodd;clip-rule:evenodd;stroke-linejoin:round;stroke-miterlimit:2;">
    <g transform="matrix(1,0,0,1,64,64)">
        <path d="M64,8.999C64,4.032 59.968,0 55.001,0L8.999,0C4.032,0 0,4.032 0,8.999L0,55.001C0,59.968 4.032,64 8.999,64L55.001,64C59.968,64 64,59.968 64,55.001L64,8.999Z" style="fill:rgb(168,0,168);"/>
    </g>
    <g transform="matrix(1,0,0,1,0,64)">
        <path d="M64,8.999C64,4.032 59.968,0 55.001,0L8.999,0C4.032,0 0,4.032 0,8.999L0,55.001C0,59.968 4.032,64 8.999,64L55.001,64C59.968,64 64,59.968 64,55.001L64,8.999Z" style="fill:rgb(168,0,0);"/>
    </g>
    <g transform="matrix(1,0,0,1,64,0)">
        <path d="M64,8.999C64,4.032 59.968,0 55.001,0L8.999,0C4.032,0 0,4.032 0,8.999L0,55.001C0,59.968 4.032,64 8.999,64L55.001,64C59.968,64 64,59.968 64,55.001L64,8.999Z" style="fill:rgb(0,168,0);"/>
    </g>
    <path d="M64,8.999C64,4.032 59.968,0 55.001,0L8.999,0C4.032,0 0,4.032 0,8.999L0,55.001C0,59.968 4.032,64 8.999,64L55.001,64C59.968,64 64,59.968 64,55.001L64,8.999Z" style="fill:rgb(0,168,168);"/>
    <g transform="matrix(1,0,0,1,1.71038,-0.965402)">
        <g transform="matrix(57.1429,0,0,57.1429,12,52)">
            <path d="M0.425,-0.254L0.612,-0.243C0.603,-0.161 0.573,-0.099 0.521,-0.055C0.47,-0.012 0.406,0.01 0.331,0.01C0.241,0.01 0.167,-0.02 0.112,-0.08C0.056,-0.139 0.028,-0.222 0.028,-0.328C0.028,-0.432 0.055,-0.516 0.107,-0.581C0.16,-0.645 0.234,-0.677 0.328,-0.677C0.416,-0.677 0.484,-0.652 0.531,-0.604C0.579,-0.555 0.606,-0.49 0.612,-0.409L0.421,-0.399C0.421,-0.444 0.412,-0.476 0.395,-0.496C0.378,-0.515 0.358,-0.525 0.335,-0.525C0.271,-0.525 0.238,-0.461 0.238,-0.331C0.238,-0.258 0.247,-0.209 0.263,-0.183C0.28,-0.157 0.304,-0.144 0.334,-0.144C0.388,-0.144 0.418,-0.181 0.425,-0.254Z" style="fill:white;fill-rule:nonzero;"/>
        </g>
    </g>
</svg>
